<svg fill="none" height="24" viewBox="0 0 24 24" width="24" xmlns="http://www.w3.org/2000/svg"><path clip-rule="evenodd" d="m1 2.83783c0-.48742.19363-.95488.53829-1.29954s.81212-.53829 1.29954-.53829h18.32327c.2414 0 .4804.04754.7033.1399.223.09236.4256.22773.5963.39839.1706.17066.306.37326.3984.59623.0923.22298.1399.46196.1399.70331v18.32327c0 .2414-.0476.4804-.1399.7033-.0924.223-.2278.4256-.3984.5963-.1707.1706-.3733.306-.5963.3984-.2229.0923-.4619.1399-.7033.1399h-18.32327c-.48742 0-.95488-.1937-1.29954-.5383-.34466-.3447-.53829-.8121-.53829-1.2996zm8.70792 6.54928h2.97908v1.49689c.4294-.8608 1.5298-1.63439 3.1829-1.63439 3.1688 0 3.9209 1.71319 3.9209 4.85669v5.822h-3.2082v-5.1061c0-1.7901-.4294-2.7998-1.5216-2.7998-1.5147 0-2.1449 1.0885-2.1449 2.7998v5.1061h-3.20818zm-5.49974 10.40369h3.20819v-10.54119h-3.20819zm3.6665-13.97853c0 .27084-.05335.53903-.15699.78925-.10365.25022-.25557.47758-.44708.66909s-.41887.34343-.66909.44708c-.25022.10364-.51841.15699-.78925.15699-.27083 0-.53902-.05335-.78924-.15699-.25023-.10365-.47758-.25557-.6691-.44708-.19151-.19151-.34342-.41887-.44707-.66909-.10364-.25022-.15699-.51841-.15699-.78925 0-.54698.21729-1.07156.60406-1.45834.38678-.38677.91136-.60406 1.45834-.60406.54699 0 1.07157.21729 1.45834.60406.38678.38678.60407.91136.60407 1.45834z" fill="#000" fill-rule="evenodd"/></svg>